<svg width="167" height="189" viewBox="0 0 167 189" fill="none" xmlns="http://www.w3.org/2000/svg">
<path opacity="0.41" d="M83.31 188.35C129.321 188.35 166.62 179.351 166.62 168.25C166.62 157.149 129.321 148.15 83.31 148.15C37.2992 148.15 0 157.149 0 168.25C0 179.351 37.2992 188.35 83.31 188.35Z" fill="url(#paint0_radial)"/>
<path d="M69.9699 120.82L57.6099 108.63H80.1199C86.5599 108.63 92.8299 107.13 99.0099 104.04C110.66 98.21 116.49 88.15 116.49 73.76C116.49 59.37 110.66 49.3 99.0099 43.48C92.9199 40.39 86.5599 38.89 80.1199 38.89H50.8999V156.4L62.5399 149.39C70.5799 152.24 79.2299 153.81 88.2499 153.81C93.1199 153.81 97.8799 153.34 102.5 152.47L69.9699 120.82Z" fill="#7A7A7A"/>
<path d="M91.9799 0.0899963V0H18.8098C14.6898 0 11.3398 3.34 11.3398 7.47V76.91C11.3398 100.22 21.7199 121.09 38.0999 135.19V26.17H47.3698H80.1198C88.3298 26.17 96.6299 28.2 104.93 32.26C121.35 40.29 129.56 54.16 129.56 73.76C129.56 90.36 123.64 102.89 111.73 111.28C104.23 116.49 96.4599 119.58 88.4199 120.55L125.24 156.39L126.73 143.47C149.69 130.17 165.15 105.34 165.15 76.9C165.15 35.68 132.72 2.04 91.9799 0.0899963Z" fill="#212121"/>
<path d="M99.0199 43.48C92.9299 40.39 86.5699 38.89 80.1299 38.89H50.9099V94.46C63.0899 92.61 75.5599 91.65 88.2499 91.65C96.1699 91.65 104 92.02 111.73 92.75C114.9 87.58 116.51 81.26 116.51 73.75C116.5 59.37 110.67 49.3 99.0199 43.48Z" fill="#7A7A7A"/>
<path d="M91.9799 0.0899963V0H18.8098C14.6898 0 11.3398 3.34 11.3398 7.47V76.91C11.3398 85.87 12.8799 94.48 15.6999 102.48C23.0299 100.24 30.4999 98.33 38.0999 96.76V26.18H47.3698H80.1198C88.3298 26.18 96.6299 28.21 104.93 32.27C121.35 40.3 129.56 54.17 129.56 73.77C129.56 81.58 128.23 88.47 125.61 94.47C137.64 96.3 149.39 98.98 160.79 102.47C163.61 94.47 165.15 85.87 165.15 76.9C165.15 35.68 132.72 2.04 91.9799 0.0899963Z" fill="#807E7E"/>
<path d="M38.0898 26.17H45.7498C59.5498 23.76 73.7499 22.49 88.2399 22.49C109.31 22.49 129.75 25.14 149.27 30.13C135.92 12.74 115.32 1.2 91.9698 0.0899963V0H18.8098C14.6898 0 11.3398 3.34 11.3398 7.47V34.78C20.0498 31.91 28.9798 29.53 38.0898 27.64V26.17Z" fill="#636262"/>
<path opacity="0.1" d="M108.39 97.16C113.79 91.34 116.5 83.56 116.5 73.76C116.5 68 115.55 62.95 113.69 58.58C110.22 70.11 108.35 82.33 108.35 94.99C108.35 95.72 108.37 96.44 108.39 97.16Z" fill="black"/>
<path opacity="0.1" d="M135.75 16.43C129.26 24.59 123.76 33.57 119.43 43.19C126.17 51.01 129.56 61.2 129.56 73.76C129.56 90.36 123.64 102.89 111.73 111.28C111.02 111.77 110.31 112.23 109.59 112.68C111.68 127.58 118.42 143.63 125.23 156.39L126.72 143.47C149.68 130.17 165.14 105.34 165.14 76.9C165.15 52.36 153.65 30.51 135.75 16.43Z" fill="#B7BCBC"/>
<path opacity="0.3" d="M47.5994 25.9417H53C46.7433 15.9969 39.1233 7.9376 30.383 0H18.8948C14.5405 0 11 2.37216 11 6.55891V76.9531C11 100.249 21.1248 120.838 37.7916 135V25.9417H47.5994Z" fill="url(#paint1_linear)"/>
<path opacity="0.3" d="M50.9001 156.4C50.9001 156.4 64.0901 137.01 67.6001 118.48L57.6101 108.63H69.3601C70.1401 102.96 70.5401 97.17 70.5401 91.3C70.5401 72.6 66.4701 54.85 59.1701 38.88H50.8901V156.4H50.9001Z" fill="url(#paint2_linear)"/>
<path opacity="0.1" d="M108.39 97.12C113.77 91.31 116.47 83.53 116.47 73.76C116.47 68.03 115.53 62.99 113.68 58.63C110.22 70.15 108.36 82.35 108.36 94.99C108.35 95.7 108.37 96.41 108.39 97.12Z" fill="#F0F0F0"/>
<path opacity="0.1" d="M135.75 16.43C129.26 24.6 123.75 33.59 119.42 43.22C126.15 51.04 129.53 61.22 129.53 73.76C129.53 90.36 123.61 102.89 111.7 111.28C111 111.76 110.3 112.21 109.6 112.66C111.7 127.6 118.4 143.61 125.24 156.4L126.73 143.48C149.69 130.18 165.15 105.35 165.15 76.91C165.15 52.36 153.65 30.51 135.75 16.43Z" fill="#A9A9A9"/>
<defs>
<radialGradient id="paint0_radial" cx="0" cy="0" r="1" gradientUnits="userSpaceOnUse" gradientTransform="translate(81.2916 168.27) scale(89.6474 17.9743)">
<stop stop-color="#575756"/>
<stop offset="0.147" stop-color="#616160" stop-opacity="0.8391"/>
<stop offset="0.4009" stop-color="#7D7D7C" stop-opacity="0.5611"/>
<stop offset="0.729" stop-color="#AAAAAA" stop-opacity="0.2018"/>
<stop offset="0.9133" stop-color="#C6C6C6" stop-opacity="0"/>
</radialGradient>
<linearGradient id="paint1_linear" x1="11.0069" y1="67.4977" x2="62.5" y2="68" gradientUnits="userSpaceOnUse">
<stop/>
<stop offset="0.7449"/>
</linearGradient>
<linearGradient id="paint2_linear" x1="50.9027" y1="97.6408" x2="70.548" y2="97.6408" gradientUnits="userSpaceOnUse">
<stop stop-color="#747474" stop-opacity="0"/>
<stop offset="0.0543" stop-color="white" stop-opacity="0.0729"/>
<stop offset="0.7449" stop-color="white"/>
</linearGradient>
</defs>
</svg>
